<svg width="108" height="108" viewBox="0 0 108 108" fill="none" xmlns="http://www.w3.org/2000/svg">
<path d="M37.4182 94.5069C36.735 93.9748 35.9754 93.5476 35.1648 93.2393C34.4063 92.9735 33.6114 92.8244 32.8077 92.7972C31.0513 92.7734 29.3002 92.9917 27.6041 93.4457C25.8844 93.8584 24.2388 94.3742 23.0232 94.7869C21.8075 95.1996 21.007 95.5092 21.007 95.5092C21.007 95.5092 21.7927 95.9513 23.038 96.4819C24.5973 97.1552 26.2287 97.6497 27.9006 97.9558C29.7906 98.3283 31.7402 98.2779 33.6082 97.8084C34.4782 97.6375 35.288 97.2426 35.9565 96.6633C36.6251 96.084 37.1291 95.3404 37.4182 94.5069Z" fill="black"/>
<path d="M32.17 86.9606C32.8175 88.4867 33.8364 89.8289 35.135 90.8665C35.7536 91.3451 36.4734 91.6777 37.2402 91.8392C38.0306 91.9999 38.8512 91.9229 39.5974 91.6181C39.646 90.0565 39.2226 88.5163 38.3817 87.1964C37.5719 85.9794 36.5708 84.8995 35.4167 83.998C34.4107 83.1929 33.3562 82.4497 32.259 81.7724C31.3843 81.2271 30.7765 80.9028 30.7765 80.9028C30.7765 80.9028 30.7765 81.0944 30.7765 81.4334C30.7765 81.7724 30.8654 82.2441 30.9692 82.8189C31.1973 84.2432 31.6006 85.6342 32.17 86.9606Z" fill="black"/>
<path d="M19.8062 90.9249C20.645 90.9124 21.4698 90.7094 22.2175 90.3313C22.9653 89.9532 23.6161 89.4101 24.1202 88.7435C23.7206 88.0537 23.1872 87.4497 22.551 86.9665C21.9148 86.4832 21.1884 86.1304 20.414 85.9283C18.7342 85.4942 17.0053 85.2763 15.2697 85.2798C13.5055 85.2798 11.7414 85.2798 10.4219 85.2798H8.21301L8.67259 85.7662C8.98391 86.0463 9.42866 86.459 9.99201 86.9159C11.3478 88.0267 12.8428 88.9581 14.4395 89.6868C16.1104 90.4999 17.9459 90.9233 19.8062 90.9249Z" fill="black"/>
<path d="M23.1567 84.1601C23.6129 84.7934 24.2202 85.304 24.9241 85.6462C25.6279 85.9884 26.4062 86.1513 27.1891 86.1204C27.807 84.6351 27.844 82.9739 27.2929 81.4629C26.7928 80.0601 26.0777 78.7426 25.1729 77.557C24.3279 76.4074 23.468 75.4346 22.8454 74.7271L22.0893 73.9017L21.8076 73.6069C21.8076 73.6069 21.8076 73.7838 21.6594 74.0933C21.5111 74.4028 21.4815 74.8745 21.3925 75.4198C21.1744 76.8364 21.1744 78.2777 21.3925 79.6942C21.5913 81.3072 22.1983 82.8437 23.1567 84.1601Z" fill="black"/>
<path d="M2.0162 71.8973C0.80055 71.5141 0 71.293 0 71.293C0 71.293 0.0741248 71.4993 0.2372 71.8383C0.400275 72.1773 0.6523 72.6342 0.963626 73.1943C1.27495 73.7544 1.6604 74.4029 2.10515 75.0809C2.32753 75.4199 2.56473 75.7589 2.81675 76.1127L3.00948 76.378L3.2615 76.7022L3.78038 77.3507C5.06099 78.9557 6.76502 80.1753 8.70228 80.8734C9.50501 81.1649 10.3679 81.2543 11.2138 81.1334C12.0598 81.0125 12.8624 80.6852 13.5501 80.1806C13.1542 78.6055 12.2018 77.2244 10.8667 76.2895C10.5408 76.0239 10.1992 75.7778 9.84381 75.5526C9.488 75.302 9.10255 75.0809 8.7171 74.8451C8.33165 74.6093 7.93138 74.3734 7.51628 74.1524C7.10118 73.9313 6.7602 73.7544 6.37475 73.5628C4.95868 72.9168 3.50292 72.3605 2.0162 71.8973Z" fill="black"/>
<path d="M5.67791 28.6823C5.90939 28.3824 6.10352 28.0558 6.25608 27.7096C6.40456 27.364 6.51395 27.0032 6.58223 26.6336C6.58223 26.2799 6.68601 25.8966 6.73048 25.5134C6.78025 24.6955 6.73549 23.8746 6.59706 23.0667C6.47988 22.2476 6.31655 21.4357 6.10783 20.6348C5.67791 18.9545 5.21833 17.3775 4.78841 16.2131C4.35848 15.0487 4.09163 14.238 4.09163 14.238C4.09163 14.238 3.97303 14.4149 3.79513 14.7539C3.61723 15.0929 3.38003 15.5793 3.09836 16.2278C2.42483 17.7079 1.9273 19.2611 1.61586 20.8559C1.46578 21.7576 1.38156 22.6688 1.36383 23.5826C1.36892 24.0266 1.40358 24.4697 1.46761 24.9091C1.53707 25.3318 1.63112 25.7501 1.74928 26.162C1.96769 26.9459 2.3518 27.6745 2.87598 28.2991C3.41492 28.9488 4.10772 29.4553 4.89218 29.773C5.20336 29.4472 5.46777 29.0801 5.67791 28.6823Z" fill="black"/>
<path d="M19.7319 22.2855C19.895 22.0496 19.9691 21.917 19.9691 21.917H19.4503C19.0945 21.917 18.6349 21.917 18.0715 22.0349C17.5082 22.1528 16.8411 22.2118 16.1294 22.3739C15.7591 22.4482 15.3929 22.5417 15.0324 22.6539C14.6618 22.7719 14.306 22.9045 13.9353 23.0519C13.1769 23.338 12.4514 23.7036 11.7709 24.1426C11.121 24.5558 10.528 25.0512 10.0067 25.6165C9.76686 25.9003 9.56274 26.2121 9.3989 26.5451C9.23583 26.8701 9.10668 27.2109 9.01344 27.5621C8.9123 27.9168 8.86238 28.284 8.86519 28.6528C8.89758 29.0476 8.97212 29.4379 9.08757 29.8171C9.89607 29.966 10.7252 29.966 11.5337 29.8171C12.271 29.6491 12.98 29.376 13.6388 29.0065C13.9502 28.8149 14.2615 28.6233 14.558 28.4022L14.9731 28.0632L15.403 27.7094C15.9388 27.2613 16.4348 26.7682 16.8855 26.2355C17.3328 25.7461 17.7487 25.2292 18.1308 24.6879L18.3977 24.3195L18.6497 23.9657C18.8276 23.7446 18.9759 23.5236 19.1093 23.3319C19.391 22.875 19.5985 22.536 19.7319 22.2855Z" fill="black"/>
<path d="M10.5107 17.8339C11.2113 17.4937 11.8171 16.9876 12.2749 16.36C12.7337 15.7623 13.071 15.0814 13.2681 14.3555C13.6865 12.7494 13.8614 11.0901 13.787 9.43266C13.787 9.00523 13.787 8.5778 13.787 8.1651C13.787 7.75241 13.787 7.35445 13.787 6.9565C13.787 6.17533 13.6388 5.48259 13.5795 4.81933C13.446 3.58125 13.3126 2.75586 13.3126 2.75586L12.9123 3.19803C12.5706 3.58428 12.249 3.98767 11.9487 4.40664C10.9366 5.66589 10.0805 7.04159 9.39881 8.5041C9.0464 9.32419 8.76373 10.1722 8.55378 11.0392C8.37227 11.8815 8.29756 12.7431 8.33141 13.6038C8.35323 14.4261 8.56035 15.233 8.93752 15.9651C9.31468 16.6972 9.85228 17.3358 10.5107 17.8339Z" fill="black"/>
<path d="M22.9639 16.935C23.516 16.5474 24.0456 16.1292 24.5502 15.6822C25.0246 15.2695 25.4694 14.8863 25.8103 14.5473L26.6554 13.7072L26.9667 13.3829C26.3394 13.2572 25.7061 13.1637 25.0691 13.1029C24.4334 13.0425 23.7952 13.013 23.1567 13.0145C22.3613 13.0456 21.5689 13.1293 20.7847 13.265C19.1878 13.4615 17.6622 14.0379 16.3372 14.9453C15.7391 15.3938 15.2354 15.9546 14.8547 16.596C14.5166 17.2722 14.3584 18.0232 14.3951 18.7774C15.8548 19.4181 17.4994 19.5071 19.0205 19.028C19.7333 18.8224 20.4198 18.5356 21.0663 18.1731C21.7342 17.8166 22.3692 17.4023 22.9639 16.935Z" fill="black"/>
<path d="M19.7914 83.9096C24.6494 87.6207 30.0485 90.573 35.8024 92.6646C40.3833 94.507 46.2837 97.5285 52.273 100.329C47.3633 101.897 40.1713 104.227 35.0993 105.153C34.5508 105.241 37.4268 108.1 37.9605 107.997C42.9269 106.523 50.153 103.63 55.1194 101.641C59.9522 104.002 65.0544 106.854 70.315 107.997C70.8635 108.086 72.5832 105.153 72.0347 105.049C67.2662 104.196 62.561 101.944 57.951 100.462C66.2678 96.9832 74.2585 93.092 81.2262 89.3041C88.6044 85.4137 94.5255 79.2633 98.1119 71.7646C101.699 64.6185 103.812 56.8306 104.324 48.86C104.828 37.9089 101.121 27.1641 95.4286 17.9079C93.7315 15.1516 91.0238 11.6427 88.9694 9.13823C89.1163 8.47803 89.1163 7.79391 88.9694 7.13371C88.8395 6.38002 88.5516 5.66192 88.1244 5.02602C87.1522 3.68013 85.8716 2.58376 84.3885 1.82765C83.0932 1.13282 81.7129 0.607674 80.282 0.265303C79.7038 0.132652 79.2442 0.0442172 78.9181 0H78.5475H78.414V0.117913L78.6661 0.412694L79.2887 1.60656C79.8372 2.59408 80.5637 3.89112 81.4383 5.15868C81.8744 5.79736 82.3445 6.41237 82.8467 7.00106C83.096 7.2882 83.3687 7.55441 83.6621 7.79697C84.4332 8.57593 85.3931 9.14443 86.4492 9.44775C87.0165 9.58472 87.6007 9.63933 88.1837 9.60988C92.1405 14.3537 96.2484 20.4852 98.7642 26.1176C101.988 33.0922 103.589 40.6993 103.449 48.3736C103.008 56.8595 100.7 65.146 96.6887 72.6489C93.8097 78.3619 89.4364 83.1986 84.0281 86.6511C79.0562 89.6667 73.8452 92.2743 68.4471 94.448C64.4443 96.1725 59.7003 97.9265 54.897 99.4888C45.0497 96.2613 35.5096 92.1724 26.3885 87.2701C22.4673 85.1481 18.9541 82.3538 16.011 79.0162C13.1819 75.5591 10.9204 71.679 9.31009 67.5197C5.91576 59.8859 4.30887 51.5855 4.61056 43.2445C5.43043 33.3884 8.84033 23.9193 14.4988 15.7855C15.9012 13.6552 17.4206 11.6034 19.0501 9.63934C19.6134 9.66148 20.177 9.60693 20.7253 9.47721C21.4258 9.27998 22.0875 8.96601 22.6823 8.54865C22.9902 8.33363 23.2825 8.09725 23.5569 7.8412C23.8238 7.59064 24.0906 7.32534 24.3575 7.03055C24.8931 6.45577 25.3884 5.84512 25.84 5.20291C26.7147 3.93535 27.4411 2.62355 27.9896 1.63603C28.2565 1.14964 28.464 0.736953 28.6123 0.442171C28.6732 0.332447 28.7277 0.219252 28.7753 0.103172V0H28.6567H28.2861C27.8264 0.0603729 27.3709 0.148976 26.9222 0.265302C25.4977 0.606377 24.1228 1.12643 22.8305 1.8129C21.3509 2.57412 20.0714 3.66957 19.0946 5.0113C18.6415 5.6488 18.3375 6.37903 18.2051 7.14847C18.0576 7.79367 18.0576 8.46353 18.2051 9.10873C14.4319 13.6874 11.2679 18.7304 8.79122 24.1131C5.72013 30.5532 3.97609 37.5391 3.66176 44.6594C3.35044 52.8396 5.57419 60.6807 8.67261 68.2418C11.0267 74.2939 14.8457 79.6755 19.7914 83.9096Z" fill="black"/>
<path d="M80.0552 98.7515C81.7286 98.4518 83.3608 97.9571 84.9178 97.2776C86.1631 96.7323 86.9488 96.2901 86.9488 96.2901C86.9488 96.2901 86.1482 95.9806 84.9326 95.5826C83.7169 95.1847 82.0714 94.6541 80.3517 94.2266C78.6699 93.7767 76.934 93.5585 75.1926 93.5781C73.5045 93.6386 71.8859 94.2615 70.5968 95.3468C70.8894 96.1717 71.3911 96.9075 72.0533 97.4833C72.7155 98.059 73.5159 98.4553 74.3772 98.6336C76.2386 99.0836 78.1765 99.1239 80.0552 98.7515Z" fill="black"/>
<path d="M70.804 92.6345C71.5708 92.4729 72.2906 92.1403 72.9092 91.6617C74.2072 90.6296 75.2262 89.2923 75.8742 87.7706C76.4523 86.4347 76.8655 85.0341 77.1046 83.5994C77.2084 83.0246 77.2529 82.5382 77.2974 82.214C77.3418 81.8897 77.2974 81.6833 77.2974 81.6833C77.2974 81.6833 76.7044 81.9929 75.8149 82.5382C74.7177 83.2155 73.6631 83.9587 72.6571 84.7638C71.5036 85.6716 70.5027 86.7562 69.6921 87.9769C68.8607 89.3003 68.4428 90.8391 68.4913 92.3987C69.2209 92.7065 70.0268 92.7887 70.804 92.6345Z" fill="black"/>
<path d="M92.7305 86.1054C90.9942 86.1065 89.2653 86.3294 87.5862 86.7686C86.8199 86.9716 86.1023 87.3253 85.4758 87.8088C84.8494 88.2924 84.3269 88.8959 83.9393 89.5838C84.4418 90.251 85.0927 90.7937 85.841 91.1695C86.5894 91.5454 87.415 91.7442 88.2533 91.7504C90.112 91.7638 91.9486 91.3502 93.62 90.5418C95.2197 89.8186 96.7153 88.8867 98.0675 87.7709C98.6309 87.3287 99.0756 86.9013 99.3869 86.6212L99.8613 86.1348H97.6376C96.2589 86.0906 94.4947 86.0612 92.7305 86.1054Z" fill="black"/>
<path d="M80.8854 86.9609C81.6665 86.9908 82.4431 86.829 83.1464 86.4896C83.8497 86.1503 84.4581 85.6439 84.9178 85.0153C85.8804 83.7149 86.4974 82.1941 86.7116 80.5936C86.9299 79.182 86.9299 77.7456 86.7116 76.334C86.6456 75.8827 86.5566 75.435 86.4447 74.9927C86.3558 74.6832 86.2965 74.5063 86.2965 74.5063L86.0148 74.8011C85.8221 74.9927 85.5701 75.2875 85.2587 75.6265C84.6361 76.334 83.7762 77.3215 82.9312 78.4712C82.0233 79.6548 81.308 80.9728 80.8112 82.377C80.2669 83.8618 80.2933 85.4942 80.8854 86.9609Z" fill="black"/>
<path d="M104.22 78.1173C104.398 77.911 104.561 77.6899 104.738 77.4688L104.976 77.1446L105.183 76.8793C105.435 76.5403 105.672 76.1865 105.895 75.8475C106.34 75.1695 106.725 74.521 107.036 73.9757C107.348 73.4303 107.6 72.9292 107.763 72.6049C107.926 72.2807 108 72.0596 108 72.0596L105.984 72.6639C104.499 73.1393 103.044 73.7003 101.625 74.3441C101.24 74.521 100.854 74.7126 100.469 74.919L99.2829 75.6117L98.1562 76.3192C97.8004 76.5697 97.4446 76.8056 97.1333 77.0561C95.7745 78.02 94.8195 79.4468 94.4499 81.0652C95.1364 81.5721 95.9391 81.9009 96.7856 82.0219C97.632 82.1428 98.4954 82.0521 99.2977 81.7579C101.252 81.0322 102.959 79.7698 104.22 78.1173Z" fill="black"/>
<path d="M103.908 14.9456C103.908 14.9456 103.627 15.7267 103.211 16.9206C102.796 18.1145 102.322 19.7063 101.892 21.3423C101.679 22.1721 101.516 23.0137 101.403 23.8627C101.264 24.6655 101.219 25.4816 101.269 26.2946C101.269 26.6779 101.269 27.0611 101.418 27.4296C101.488 27.7938 101.597 28.1496 101.744 28.4908C101.896 28.837 102.091 29.1637 102.322 29.4635C102.542 29.7971 102.806 30.0995 103.108 30.3626C103.89 30.0407 104.582 29.5349 105.124 28.8887C105.651 28.2606 106.035 27.5265 106.251 26.7368C106.369 26.325 106.463 25.9067 106.532 25.484C106.596 25.0446 106.631 24.6014 106.636 24.1575C106.618 23.2486 106.534 22.3422 106.384 21.4455C106.075 19.8502 105.577 18.2967 104.902 16.8174C104.635 16.2131 104.383 15.7267 104.22 15.3435L103.908 14.9456Z" fill="black"/>
<path d="M98.6011 27.4594C98.4442 27.1225 98.2396 26.8098 97.9933 26.5308C97.4755 25.9619 96.882 25.466 96.2291 25.0569C95.5486 24.6179 94.8231 24.2523 94.0646 23.9662C93.694 23.8188 93.3234 23.6862 92.9676 23.583C92.6072 23.4661 92.2411 23.3677 91.8705 23.2882C91.1441 23.1261 90.4918 23.0229 89.9285 22.9492C89.3651 22.8755 88.9055 22.846 88.5646 22.8313H88.0309L88.2532 23.2145C88.4015 23.4503 88.609 23.8041 88.8759 24.202C89.1427 24.6 89.1576 24.6147 89.3355 24.8506L89.5875 25.2043L89.8543 25.5728C90.2365 26.114 90.6524 26.6309 91.0996 27.1204C91.55 27.6534 92.046 28.1466 92.5821 28.5943C92.7187 28.7201 92.8622 28.8382 93.0121 28.948L93.4272 29.287C93.7207 29.5071 94.0277 29.709 94.3463 29.8913C95.0023 30.2668 95.7122 30.5402 96.4515 30.702C97.2593 30.8582 98.0898 30.8582 98.8976 30.702C99.013 30.3228 99.0876 29.9325 99.12 29.5376C99.1228 29.1737 99.0729 28.8113 98.9717 28.4616C98.8846 28.1153 98.7604 27.7793 98.6011 27.4594Z" fill="black"/>
<path d="M97.4893 18.6596C98.1501 18.166 98.6905 17.5307 99.0704 16.8009C99.4503 16.0712 99.6598 15.2656 99.6834 14.4442C99.7056 13.5831 99.6259 12.7223 99.4462 11.8796C99.2385 11.0072 98.9558 10.1541 98.6012 9.32978C98.254 8.5445 97.8579 7.7815 97.4152 7.04523C97.0352 6.41312 96.6194 5.80293 96.1699 5.21758C95.7993 4.70171 95.4435 4.28902 95.2063 4.00898L94.8208 3.58154C94.8208 3.58154 94.6726 4.40693 94.5392 5.63027C94.465 6.26406 94.3909 6.98627 94.3316 7.76744C94.3316 8.1654 94.3316 8.56335 94.3316 8.97605C94.3316 9.38874 94.3316 9.81617 94.3316 10.2436C94.2572 11.9011 94.4321 13.5603 94.8505 15.1665C95.0309 15.8948 95.3532 16.5808 95.7993 17.1857C96.2391 17.8015 96.8179 18.3063 97.4893 18.6596Z" fill="black"/>
<path d="M91.6333 15.6967C90.3071 14.794 88.7814 14.2227 87.1858 14.0312C86.4212 13.9081 85.6476 13.849 84.8731 13.8543C84.1466 13.8543 83.4795 13.8543 82.9013 13.8543C82.2531 13.9385 81.6098 14.0565 80.9741 14.2081L81.2854 14.5323L82.1156 15.3725C82.4714 15.7262 82.9162 16.0947 83.3906 16.5221C83.896 16.9682 84.4255 17.3864 84.9768 17.7749C85.5594 18.204 86.1739 18.5883 86.8151 18.9246C87.4555 19.2993 88.1436 19.5868 88.861 19.7795C90.3801 20.2646 92.0252 20.1807 93.4864 19.5436C93.5256 18.7845 93.3673 18.0281 93.0268 17.3475C92.6723 16.714 92.1993 16.1537 91.6333 15.6967Z" fill="black"/>
<path d="M14.4734 58L17.7134 50.95H18.9634L22.2034 58H20.6434L19.9834 56.47H16.6934L16.0434 58H14.4734ZM18.3234 52.6L17.2134 55.26H19.4734L18.3434 52.6H18.3234ZM26.1839 58.11C25.1839 58.11 24.4206 57.8533 23.8939 57.34C23.3739 56.8267 23.1139 56.0633 23.1139 55.05V50.95H24.6639V55.06C24.6639 55.6333 24.7939 56.0667 25.0539 56.36C25.3139 56.6467 25.6906 56.79 26.1839 56.79C27.1906 56.79 27.6939 56.2133 27.6939 55.06V50.95H29.2239V55.05C29.2239 56.0633 28.9672 56.8267 28.4539 57.34C27.9406 57.8533 27.1839 58.11 26.1839 58.11ZM32.6755 58V52.23H30.3455V50.95H36.5555V52.23H34.2255V58H32.6755ZM37.7139 58V50.95H39.2639V53.78H42.5439V50.95H44.0939V58H42.5439V55.07H39.2639V58H37.7139ZM45.9166 58V50.95H50.7466V52.16H47.3966V53.81H50.5266V55.03H47.3966V56.79H50.7466V58H45.9166ZM52.3713 58V50.95H53.5213L57.0413 55.44V50.95H58.4813V58H57.3413L53.8113 53.5V58H52.3713ZM61.9806 58V52.23H59.6506V50.95H65.8606V52.23H63.5306V58H61.9806ZM67.019 58V50.95H68.569V58H67.019ZM73.798 58.11C73.038 58.11 72.388 57.96 71.848 57.66C71.308 57.36 70.8913 56.94 70.598 56.4C70.3113 55.8533 70.168 55.21 70.168 54.47C70.168 53.7367 70.3113 53.1 70.598 52.56C70.8913 52.0133 71.308 51.59 71.848 51.29C72.388 50.99 73.038 50.84 73.798 50.84C74.2646 50.84 74.7113 50.9133 75.138 51.06C75.5646 51.2067 75.9146 51.4067 76.188 51.66L75.708 52.89C75.408 52.6567 75.1046 52.4867 74.798 52.38C74.498 52.2667 74.1813 52.21 73.848 52.21C73.1746 52.21 72.6646 52.4067 72.318 52.8C71.978 53.1867 71.808 53.7433 71.808 54.47C71.808 55.1967 71.978 55.7567 72.318 56.15C72.6646 56.5433 73.1746 56.74 73.848 56.74C74.1813 56.74 74.498 56.6867 74.798 56.58C75.1046 56.4667 75.408 56.2933 75.708 56.06L76.188 57.29C75.9146 57.5367 75.5646 57.7367 75.138 57.89C74.7113 58.0367 74.2646 58.11 73.798 58.11ZM77.6041 58V50.95H79.1541V58H77.6041ZM82.6431 58V52.23H80.3131V50.95H86.5231V52.23H84.1931V58H82.6431ZM89.498 58V54.82L86.778 50.95H88.578L90.298 53.43L92.018 50.95H93.748L91.048 54.83V58H89.498Z" fill="black"/>
<path d="M39.1857 41.724C39.5517 41.826 39.8337 42.012 40.0317 42.282C40.2357 42.552 40.3377 42.882 40.3377 43.272C40.3377 43.812 40.1427 44.235 39.7527 44.541C39.3687 44.847 38.8377 45 38.1597 45H35.2797V38.655H38.0697C38.7297 38.655 39.2457 38.802 39.6177 39.096C39.9957 39.384 40.1847 39.789 40.1847 40.311C40.1847 40.647 40.0947 40.938 39.9147 41.184C39.7407 41.43 39.4977 41.61 39.1857 41.724ZM36.4137 41.328H37.8807C38.6787 41.328 39.0777 41.031 39.0777 40.437C39.0777 40.137 38.9787 39.915 38.7807 39.771C38.5827 39.627 38.2827 39.555 37.8807 39.555H36.4137V41.328ZM38.0337 44.1C38.4537 44.1 38.7597 44.025 38.9517 43.875C39.1437 43.725 39.2397 43.491 39.2397 43.173C39.2397 42.855 39.1407 42.618 38.9427 42.462C38.7507 42.306 38.4477 42.228 38.0337 42.228H36.4137V44.1H38.0337ZM47.1423 45H45.8823L44.7933 42.975C44.6913 42.783 44.5653 42.648 44.4153 42.57C44.2653 42.492 44.0763 42.453 43.8483 42.453H42.9663V45H41.8233V38.655H44.6313C45.3513 38.655 45.8973 38.817 46.2693 39.141C46.6473 39.459 46.8363 39.921 46.8363 40.527C46.8363 41.013 46.6983 41.415 46.4223 41.733C46.1523 42.045 45.7683 42.249 45.2703 42.345C45.6063 42.435 45.8763 42.672 46.0803 43.056L47.1423 45ZM44.4693 41.562C44.9073 41.562 45.2283 41.481 45.4323 41.319C45.6363 41.151 45.7383 40.896 45.7383 40.554C45.7383 40.206 45.6363 39.954 45.4323 39.798C45.2283 39.636 44.9073 39.555 44.4693 39.555H42.9573V41.562H44.4693ZM51.2631 45.081C50.6451 45.081 50.1081 44.949 49.6521 44.685C49.2021 44.421 48.8541 44.043 48.6081 43.551C48.3621 43.059 48.2391 42.483 48.2391 41.823C48.2391 41.163 48.3591 40.59 48.5991 40.104C48.8451 39.612 49.1961 39.234 49.6521 38.97C50.1081 38.706 50.6451 38.574 51.2631 38.574C51.8811 38.574 52.4151 38.706 52.8651 38.97C53.3211 39.234 53.6691 39.612 53.9091 40.104C54.1551 40.59 54.2781 41.163 54.2781 41.823C54.2781 42.483 54.1551 43.059 53.9091 43.551C53.6631 44.043 53.3121 44.421 52.8561 44.685C52.4061 44.949 51.8751 45.081 51.2631 45.081ZM51.2631 44.154C51.8451 44.154 52.2981 43.953 52.6221 43.551C52.9521 43.149 53.1171 42.573 53.1171 41.823C53.1171 41.073 52.9521 40.5 52.6221 40.104C52.2981 39.702 51.8451 39.501 51.2631 39.501C50.6751 39.501 50.2161 39.702 49.8861 40.104C49.5621 40.5 49.4001 41.073 49.4001 41.823C49.4001 42.573 49.5621 43.149 49.8861 43.551C50.2161 43.953 50.6751 44.154 51.2631 44.154ZM61.2058 38.655V45H60.3328L56.9308 40.572V45H55.8508V38.655H56.7148L60.1168 43.074V38.655H61.2058ZM67.3934 44.073V45H62.7224V44.154L65.9804 39.582H62.7224V38.655H67.2944V39.492L64.0184 44.073H67.3934ZM68.7885 38.655H73.0365V39.573H69.9225V41.319H72.8565V42.228H69.9225V44.082H73.0365V45H68.7885V38.655Z" fill="black"/>
<g clip-path="url(#clip0_630_40671)">
<path d="M65.0001 17.0045C64.9977 19.18 64.3511 21.306 63.1418 23.1147C61.9325 24.9235 60.2146 26.3339 58.2045 27.1684C56.7025 27.788 55.0817 28.0674 53.4588 27.9863C51.8359 27.9052 50.2511 27.4658 48.8183 26.6995C47.3855 25.9333 46.1404 24.8592 45.1725 23.5547C44.2045 22.2501 43.5377 20.7474 43.2201 19.1546C42.782 17.0238 42.9949 14.8105 43.8312 12.8022C44.8025 10.4486 46.5608 8.50494 48.8062 7.30282C51.0515 6.10071 53.6446 5.7147 56.143 6.21066C58.6414 6.70663 60.8901 8.05383 62.5054 10.0223C64.1207 11.9908 65.0024 14.4586 65.0001 17.0045ZM52.7779 22.8194L60.9179 14.659C60.9882 14.6025 61.0394 14.5257 61.0645 14.4391C61.0863 14.3509 61.0863 14.2587 61.0645 14.1704C61.0897 14.0826 61.0897 13.9895 61.0645 13.9016C61.0397 13.808 60.9889 13.7233 60.9179 13.6573L59.8912 12.7045L59.6468 12.5334H59.3779H59.109C59.0219 12.5701 58.946 12.6291 58.889 12.7045L52.2157 19.3256L49.1112 16.1983L48.8912 16.0517H48.6223H48.3534L48.109 16.1983L47.1068 17.2C46.983 17.3423 46.9148 17.5245 46.9148 17.7131C46.9148 17.9017 46.983 18.0839 47.1068 18.2262L51.7268 22.8194C51.775 22.9337 51.8505 23.0344 51.9468 23.1126H52.2157H52.4845L52.7779 22.8194Z" fill="black"/>
</g>
<path fill-rule="evenodd" clip-rule="evenodd" d="M54 95C59.5228 95 64 90.5228 64 85C64 79.4772 59.5228 75 54 75C48.4772 75 44 79.4772 44 85C44 90.5228 48.4772 95 54 95ZM57.2949 87.4877V77.9665H52.7764V80.5755H54.6859V87.4877C54.6859 88.5365 53.8252 89.3973 52.7764 89.3973C51.7275 89.3973 50.8669 88.5367 50.8669 87.4877H48.2579C48.2579 89.9888 50.2745 92.033 52.7764 92.033C55.2782 92.033 57.2949 89.989 57.2949 87.4877Z" fill="black"/>
<defs>
<clipPath id="clip0_630_40671">
<rect width="22" height="22" fill="white" transform="translate(43 6)"/>
</clipPath>
</defs>
</svg>
